<svg width="25" height="32" viewBox="0 0 25 32" fill="none" xmlns="http://www.w3.org/2000/svg">
<path d="M19.7943 26.8721L13.4329 18.5227C12.925 19.0907 12.3408 19.5303 11.6805 19.8414C11.0202 20.1525 10.3565 20.3081 9.6894 20.3081C8.06265 20.3081 6.6858 19.5689 5.55886 18.0907C4.43192 16.6125 3.86845 14.8058 3.86845 12.6707C3.86845 10.5356 4.43124 8.72806 5.55683 7.24806C6.68241 5.76806 8.05858 5.02717 9.68534 5.02539C11.3121 5.02362 12.6896 5.76317 13.8179 7.24406C14.9462 8.72495 15.5104 10.5325 15.5104 12.6667C15.5104 13.5929 15.3854 14.4894 15.1355 15.3561C14.8856 16.2227 14.5571 16.9641 14.1501 17.5801L20.5115 25.9281L19.7943 26.8721ZM9.69041 18.9734C11.0381 18.9734 12.1759 18.3645 13.1037 17.1467C14.0316 15.9289 14.4955 14.4352 14.4955 12.6654C14.4955 10.8956 14.0316 9.40228 13.1037 8.18539C12.1759 6.9685 11.0381 6.35962 9.69041 6.35873C8.34269 6.35784 7.20457 6.96673 6.27607 8.18539C5.34756 9.40406 4.88364 10.8974 4.88432 12.6654C4.885 14.4334 5.34891 15.9267 6.27607 17.1454C7.20322 18.3641 8.341 18.9729 9.6894 18.9721" fill="#AFAFAF"/>
</svg>
